<svg xmlns="http://www.w3.org/2000/svg" xmlns:xlink="http://www.w3.org/1999/xlink" width="1800" height="1500" viewBox="0 0 1800 1500">
  <rect width="1800" height="1500" fill="#FFF7F2"/>
  <text x="90" y="105" font-family="Arial, sans-serif" font-size="58" font-weight="700" fill="#2A1B22">howl0 developer asset kit</text>
  <text x="90" y="148" font-family="Arial, sans-serif" font-size="22" fill="#6E5A63">Approved HTML identity · vector masters, signal elements, gradients and controlled texture</text>

  <defs>
    <g id="card-light"><rect width="760" height="260" rx="24" fill="#FFFFFF" stroke="#E8D8D1" stroke-width="2"/></g>
    <g id="card-dark"><rect width="760" height="260" rx="24" fill="#2A1B22"/></g>
    <mask id="slot" maskUnits="userSpaceOnUse" x="514" y="-4" width="160" height="218"><rect x="514" y="-4" width="160" height="218" fill="#fff"/><path d="M594 105L801.3-34.8 733.8-102.3Z" fill="#000"/></mask>
    <symbol id="word-primary" viewBox="0 0 658 210"><g fill="#2A1B22"><path d="M0 10H40V150C40 86 57 68 85 68S130 86 130 150V200H90V147C90 118 78 105 63 105S40 118 40 147V200H0Z"/><path fill-rule="evenodd" d="M142 134C142 81.2 154.4 68 204 68S266 81.2 266 134 253.6 200 204 200 142 186.8 142 134ZM178 131C178 103.8 184.8 97 202 97S226 103.8 226 131 219.2 165 202 165 178 158.2 178 131Z"/><path d="M276 68H312L335.7 142 356 88H392L410.3 142 436 68H472L428 200H392L372 141 356 200H320Z"/><path d="M476 10H516V200H476Z"/></g><path mask="url(#slot)" fill="#A92E5D" fill-rule="evenodd" d="M530 105C530 29 542.8 10 594 10S658 29 658 105 645.2 200 594 200 530 181 530 105ZM566 102C566 53.2 571.2 41 592 41S618 53.2 618 102 612.8 163 592 163 566 150.8 566 102Z"/></symbol>
    <symbol id="word-reversed" viewBox="0 0 658 210"><g fill="#FFF7F2"><path d="M0 10H40V150C40 86 57 68 85 68S130 86 130 150V200H90V147C90 118 78 105 63 105S40 118 40 147V200H0Z"/><path fill-rule="evenodd" d="M142 134C142 81.2 154.4 68 204 68S266 81.2 266 134 253.6 200 204 200 142 186.8 142 134ZM178 131C178 103.8 184.8 97 202 97S226 103.8 226 131 219.2 165 202 165 178 158.2 178 131Z"/><path d="M276 68H312L335.7 142 356 88H392L410.3 142 436 68H472L428 200H392L372 141 356 200H320Z"/><path d="M476 10H516V200H476Z"/><path mask="url(#slot)" fill-rule="evenodd" d="M530 105C530 29 542.8 10 594 10S658 29 658 105 645.2 200 594 200 530 181 530 105ZM566 102C566 53.2 571.2 41 592 41S618 53.2 618 102 612.8 163 592 163 566 150.8 566 102Z"/></g></symbol>
    <symbol id="return-zero" viewBox="514 -4 160 218"><path mask="url(#slot)" fill="#A92E5D" fill-rule="evenodd" d="M530 105C530 29 542.8 10 594 10S658 29 658 105 645.2 200 594 200 530 181 530 105ZM566 102C566 53.2 571.2 41 592 41S618 53.2 618 102 612.8 163 592 163 566 150.8 566 102Z"/></symbol>
  </defs>

  <g transform="translate(90 205)"><use xlink:href="#card-light"/><use xlink:href="#word-primary" x="65" y="42" width="630" height="155"/><text x="30" y="235" font-family="Arial, sans-serif" font-size="20" font-weight="700" fill="#2A1B22">Primary master · flat Cocoa + Raspberry</text></g>
  <g transform="translate(950 205)"><use xlink:href="#card-dark"/><use xlink:href="#word-reversed" x="65" y="42" width="630" height="155"/><text x="30" y="235" font-family="Arial, sans-serif" font-size="20" font-weight="700" fill="#FFF7F2">Reversed master · Warm Paper</text></g>

  <g transform="translate(90 505)"><use xlink:href="#card-light"/><use xlink:href="#return-zero" x="80" y="35" width="220" height="170"/><image x="395" y="25" width="190" height="190" preserveAspectRatio="xMidYMid meet" xlink:href="../02-symbols/howl0-app-icon-1024.png"/><text x="30" y="235" font-family="Arial, sans-serif" font-size="20" font-weight="700" fill="#2A1B22">Exact 22° return symbol · approved app icon</text></g>
  <g transform="translate(950 505)"><use xlink:href="#card-light"/><rect x="90" y="50" width="580" height="130" rx="34" fill="#FFFFFF" stroke="#E6D2CA" stroke-width="4"/><use xlink:href="#return-zero" x="125" y="72" width="66" height="90"/><text x="225" y="132" font-family="Arial, sans-serif" font-size="29" font-weight="700" fill="#2A1B22">howl0.link/practice</text><text x="30" y="235" font-family="Arial, sans-serif" font-size="20" font-weight="700" fill="#2A1B22">One-link differentiator</text></g>

  <g transform="translate(90 805)"><use xlink:href="#card-light"/><image x="50" y="60" width="660" height="115" preserveAspectRatio="xMidYMid meet" xlink:href="../03-signal-elements/signal-wave-raspberry.png"/><text x="30" y="235" font-family="Arial, sans-serif" font-size="20" font-weight="700" fill="#2A1B22">Signal wave</text></g>
  <g transform="translate(950 805)"><use xlink:href="#card-light"/><image x="50" y="60" width="660" height="115" preserveAspectRatio="xMidYMid meet" xlink:href="../03-signal-elements/musical-staff-lines-subtle.png"/><text x="30" y="235" font-family="Arial, sans-serif" font-size="20" font-weight="700" fill="#2A1B22">Staff-line system</text></g>

  <g transform="translate(90 1105)"><use xlink:href="#card-light"/><image x="60" y="32" width="300" height="170" preserveAspectRatio="xMidYMid slice" xlink:href="../04-backgrounds/gradient-warm-signal-noise-1920x1080.png"/><image x="400" y="32" width="300" height="170" preserveAspectRatio="xMidYMid slice" xlink:href="../04-backgrounds/gradient-progress-glow-noise-1920x1080.png"/><text x="30" y="235" font-family="Arial, sans-serif" font-size="20" font-weight="700" fill="#2A1B22">Warm Signal + Progress Glow</text></g>
  <g transform="translate(950 1105)"><use xlink:href="#card-dark"/><image x="60" y="32" width="300" height="170" preserveAspectRatio="xMidYMid slice" xlink:href="../04-backgrounds/gradient-signal-depth-noise-1920x1080.png"/><image x="400" y="32" width="300" height="170" preserveAspectRatio="xMidYMid slice" xlink:href="../04-backgrounds/editorial-signal-texture-1920x1080.png"/><text x="30" y="235" font-family="Arial, sans-serif" font-size="20" font-weight="700" fill="#FFF7F2">Signal Depth + editorial texture</text></g>

  <text x="90" y="1438" font-family="Arial, sans-serif" font-size="20" fill="#6E5A63">Production rule: keep the master logo flat. Apply gradients and grain to containers, backgrounds and campaign moments only.</text>
</svg>
